<?xml version="1.0" encoding="utf-8"?>
<!-- Generator: Adobe Illustrator 27.5.0, SVG Export Plug-In . SVG Version: 6.00 Build 0)  -->
<svg version="1.1" xmlns="http://www.w3.org/2000/svg" xmlns:xlink="http://www.w3.org/1999/xlink" x="0px" y="0px"
	 viewBox="0 0 3710 3710" style="enable-background:new 0 0 3710 3710;" xml:space="preserve">
<g id="Background">
	<g>
		<g>
			<rect style="fill:#FFFFFF;" width="3710" height="3710"/>
		</g>
	</g>
</g>
<g id="Illustration">
	<g>
		<path style="fill:#F4F7FA;" d="M3214.6,1422.1C2972.261,644.179,1983.11,322.854,1296.348,511.011
			c-74.269,20.347-692.933,200.243-882.87,761.726c-9.491,28.057-187.117,578.183,117.666,904.034
			c225.454,241.041,536.122,168.239,659.111,411.81c107.163,212.233-78.036,367.846,20.352,509.07
			c149.876,215.122,797.517,166.798,1246.875-88.625C2921.473,2745.285,3430.45,2114.991,3214.6,1422.1z"/>
		<g>
			<g>
				
					<linearGradient id="SVGID_1_" gradientUnits="userSpaceOnUse" x1="4127.8086" y1="1427.9791" x2="4446.8818" y2="1924.316" gradientTransform="matrix(0.8209 0.571 -0.571 0.8209 -432.4296 -2092.8533)">
					<stop  offset="0.0036" style="stop-color:#FFFFFF"/>
					<stop  offset="1" style="stop-color:#F4F7FA"/>
				</linearGradient>
				<polygon style="fill:url(#SVGID_1_);" points="1747.186,2482.135 1322.979,2042.644 2516.004,891.109 2940.21,1330.6 				"/>
				
					<linearGradient id="SVGID_00000127744431222476394340000001082591862662442625_" gradientUnits="userSpaceOnUse" x1="5245.9951" y1="135.3096" x2="5514.4551" y2="1484.6782" gradientTransform="matrix(0.6945 0.7195 -0.7195 0.6945 -797.5298 -2876.5127)">
					<stop  offset="0" style="stop-color:#FFC444"/>
					<stop  offset="0.9964" style="stop-color:#F36F56"/>
				</linearGradient>
				<polygon style="fill:url(#SVGID_00000127744431222476394340000001082591862662442625_);" points="2628.403,1513.472 
					2308.438,1181.979 2509.154,988.244 2829.118,1319.737 				"/>
				
					<linearGradient id="SVGID_00000105420656946049354870000018270502815080512159_" gradientUnits="userSpaceOnUse" x1="5161.6406" y1="37.8274" x2="5430.1006" y2="1387.1959" gradientTransform="matrix(0.6945 0.7195 -0.7195 0.6945 -797.5298 -2876.5127)">
					<stop  offset="0" style="stop-color:#FFC444"/>
					<stop  offset="0.9964" style="stop-color:#F36F56"/>
				</linearGradient>
				<polygon style="fill:url(#SVGID_00000105420656946049354870000018270502815080512159_);" points="2393.493,1740.213 
					2073.528,1408.72 2274.243,1214.985 2594.208,1546.479 				"/>
				
					<linearGradient id="SVGID_00000097479873530208384590000012060913314652643245_" gradientUnits="userSpaceOnUse" x1="5098.6489" y1="47.724" x2="5367.1089" y2="1397.0925" gradientTransform="matrix(0.6945 0.7195 -0.7195 0.6945 -797.5298 -2876.5127)">
					<stop  offset="0" style="stop-color:#FFC444"/>
					<stop  offset="0.9964" style="stop-color:#F36F56"/>
				</linearGradient>
				<polygon style="fill:url(#SVGID_00000097479873530208384590000012060913314652643245_);" points="2158.582,1966.955 
					1838.617,1635.462 2039.332,1441.727 2359.297,1773.22 				"/>
				
					<linearGradient id="SVGID_00000119119953953059892470000006479116797315859101_" gradientUnits="userSpaceOnUse" x1="5054.3096" y1="151.3701" x2="5322.7695" y2="1500.7386" gradientTransform="matrix(0.6945 0.7195 -0.7195 0.6945 -797.5298 -2876.5127)">
					<stop  offset="0" style="stop-color:#FFC444"/>
					<stop  offset="0.9964" style="stop-color:#F36F56"/>
				</linearGradient>
				<polygon style="fill:url(#SVGID_00000119119953953059892470000006479116797315859101_);" points="1923.671,2193.696 
					1603.706,1862.203 1804.421,1668.468 2124.386,1999.961 				"/>
				<g style="opacity:0.3;">
					
						<linearGradient id="SVGID_00000008829196725347840250000008651097475205601956_" gradientUnits="userSpaceOnUse" x1="4728.1963" y1="872.4225" x2="4353.4072" y2="1789.1362" gradientTransform="matrix(0.8209 0.571 -0.571 0.8209 -432.4296 -2092.8533)">
						<stop  offset="0" style="stop-color:#FFC444"/>
						<stop  offset="0.9964" style="stop-color:#F36F56"/>
					</linearGradient>
					<path style="fill:url(#SVGID_00000008829196725347840250000008651097475205601956_);" d="M2940.21,1330.6l-225.505-233.63
						c-14.45,64.97-41.612,132.835-90.974,192.63c-93.925,113.778-201.698,117.785-364.661,218.264
						c-170.079,104.867-217.496,202.118-348.121,340.813c-95.307,101.194-235.742,225.317-443.715,343.419l279.951,290.038
						L2940.21,1330.6z"/>
				</g>
			</g>
			<g>
				
					<linearGradient id="SVGID_00000157279493928863474610000005964084829574400702_" gradientUnits="userSpaceOnUse" x1="4901.1826" y1="1100.001" x2="4430.1602" y2="1953.4111" gradientTransform="matrix(0.8209 0.571 -0.571 0.8209 -432.4296 -2092.8533)">
					<stop  offset="0.0036" style="stop-color:#FFFFFF"/>
					<stop  offset="1" style="stop-color:#F4F7FA"/>
				</linearGradient>
				<polygon style="fill:url(#SVGID_00000157279493928863474610000005964084829574400702_);" points="1539.738,2467.05 
					1380.197,1877.432 2980.753,1444.348 3140.294,2033.967 				"/>
				
					<linearGradient id="SVGID_00000102510097796931775510000012521676699654392705_" gradientUnits="userSpaceOnUse" x1="8112.5229" y1="-2372.437" x2="8324.1152" y2="-1236.5203" gradientTransform="matrix(0.2612 0.9653 -0.9653 0.2612 -1329.3 -5535.333)">
					<stop  offset="0.0036" style="stop-color:#E38DDD"/>
					<stop  offset="1" style="stop-color:#9571F6"/>
				</linearGradient>
				<polygon style="fill:url(#SVGID_00000102510097796931775510000012521676699654392705_);" points="2778.948,2043.718 
					2658.612,1598.988 2927.89,1526.126 3048.227,1970.856 				"/>
				
					<linearGradient id="SVGID_00000075882573698429482420000000353319790704088962_" gradientUnits="userSpaceOnUse" x1="8053.7441" y1="-2361.4917" x2="8265.3369" y2="-1225.5747" gradientTransform="matrix(0.2612 0.9653 -0.9653 0.2612 -1329.3 -5535.333)">
					<stop  offset="0.0036" style="stop-color:#E38DDD"/>
					<stop  offset="1" style="stop-color:#9571F6"/>
				</linearGradient>
				<polygon style="fill:url(#SVGID_00000075882573698429482420000000353319790704088962_);" points="2463.793,2128.994 
					2343.457,1684.264 2612.735,1611.402 2733.071,2056.131 				"/>
				
					<linearGradient id="SVGID_00000095316520769809425760000010257904565986431366_" gradientUnits="userSpaceOnUse" x1="7994.9658" y1="-2350.5447" x2="8206.5586" y2="-1214.6277" gradientTransform="matrix(0.2612 0.9653 -0.9653 0.2612 -1329.3 -5535.333)">
					<stop  offset="0.0036" style="stop-color:#E38DDD"/>
					<stop  offset="1" style="stop-color:#9571F6"/>
				</linearGradient>
				<polygon style="fill:url(#SVGID_00000095316520769809425760000010257904565986431366_);" points="2148.638,2214.269 
					2028.302,1769.54 2297.58,1696.677 2417.916,2141.407 				"/>
				
					<linearGradient id="SVGID_00000047765949542446896180000000203547918646881202_" gradientUnits="userSpaceOnUse" x1="7897.417" y1="-2547.7344" x2="8109.0093" y2="-1411.8174" gradientTransform="matrix(0.2612 0.9653 -0.9653 0.2612 -1329.3 -5535.333)">
					<stop  offset="0.0036" style="stop-color:#E38DDD"/>
					<stop  offset="1" style="stop-color:#9571F6"/>
				</linearGradient>
				<polygon style="fill:url(#SVGID_00000047765949542446896180000000203547918646881202_);" points="1833.483,2299.545 
					1713.146,1854.815 1982.425,1781.953 2102.761,2226.683 				"/>
				<g style="opacity:0.3;">
					
						<linearGradient id="SVGID_00000008864295200007083830000014763270006414488193_" gradientUnits="userSpaceOnUse" x1="5001.7017" y1="1155.4865" x2="4530.6816" y2="2008.8931" gradientTransform="matrix(0.8209 0.571 -0.571 0.8209 -432.4296 -2092.8533)">
						<stop  offset="0.0036" style="stop-color:#E38DDD"/>
						<stop  offset="1" style="stop-color:#9571F6"/>
					</linearGradient>
					<path style="fill:url(#SVGID_00000008864295200007083830000014763270006414488193_);" d="M3140.293,2033.966l-105.074-388.329
						c-66.611,85.542-133.583,124.084-187.203,143.134c-150.657,53.528-240.669-30.74-438.411,5.026
						c-185.423,33.538-262.533,135.897-387.707,211.487c-119.095,71.917-299.284,130.219-580.573,98.058l98.413,363.708
						L3140.293,2033.966z"/>
				</g>
			</g>
			<g>
				
					<linearGradient id="SVGID_00000117674149771969344990000001138701087039803531_" gradientUnits="userSpaceOnUse" x1="4678.1167" y1="1838.1743" x2="4824.9849" y2="2380.0662" gradientTransform="matrix(0.8209 0.571 -0.571 0.8209 -432.4296 -2092.8533)">
					<stop  offset="0.0036" style="stop-color:#FFFFFF"/>
					<stop  offset="1" style="stop-color:#F4F7FA"/>
				</linearGradient>
				<polygon style="fill:url(#SVGID_00000117674149771969344990000001138701087039803531_);" points="1405.547,2397.235 
					1550.262,1803.804 3161.168,2196.643 3016.453,2790.074 				"/>
				
					<linearGradient id="SVGID_00000005975338850697663190000006879006032321008828_" gradientUnits="userSpaceOnUse" x1="9441.1563" y1="-5846.3145" x2="9652.7598" y2="-4710.3354" gradientTransform="matrix(-0.2369 0.9715 -0.9715 -0.2369 -511.8332 -8121.0181)">
					<stop  offset="0" style="stop-color:#FF9085"/>
					<stop  offset="1" style="stop-color:#FB6FBB"/>
				</linearGradient>
				<polygon style="fill:url(#SVGID_00000005975338850697663190000006879006032321008828_);" points="2695.237,2624.284 
					2804.391,2176.679 3075.41,2242.771 2966.256,2690.376 				"/>
				
					<linearGradient id="SVGID_00000116922363262276489870000009924675285903450756_" gradientUnits="userSpaceOnUse" x1="9369.4092" y1="-5904.9629" x2="9581.0127" y2="-4768.9844" gradientTransform="matrix(-0.2369 0.9715 -0.9715 -0.2369 -511.8332 -8121.0181)">
					<stop  offset="0" style="stop-color:#FF9085"/>
					<stop  offset="1" style="stop-color:#FB6FBB"/>
				</linearGradient>
				<polygon style="fill:url(#SVGID_00000116922363262276489870000009924675285903450756_);" points="2378.044,2546.933 
					2487.198,2099.328 2758.217,2165.419 2649.063,2613.025 				"/>
				
					<linearGradient id="SVGID_00000160176969480782564370000007736061453407437190_" gradientUnits="userSpaceOnUse" x1="9303.0479" y1="-5934.6982" x2="9514.6514" y2="-4798.7192" gradientTransform="matrix(-0.2369 0.9715 -0.9715 -0.2369 -511.8332 -8121.0181)">
					<stop  offset="0" style="stop-color:#FF9085"/>
					<stop  offset="1" style="stop-color:#FB6FBB"/>
				</linearGradient>
				<polygon style="fill:url(#SVGID_00000160176969480782564370000007736061453407437190_);" points="2060.85,2469.582 
					2170.004,2021.976 2441.024,2088.068 2331.87,2535.673 				"/>
				
					<linearGradient id="SVGID_00000114766272851203358780000006086935381860251272_" gradientUnits="userSpaceOnUse" x1="9231.4189" y1="-5992.7144" x2="9443.0225" y2="-4856.7358" gradientTransform="matrix(-0.2369 0.9715 -0.9715 -0.2369 -511.8332 -8121.0181)">
					<stop  offset="0" style="stop-color:#FF9085"/>
					<stop  offset="1" style="stop-color:#FB6FBB"/>
				</linearGradient>
				<polygon style="fill:url(#SVGID_00000114766272851203358780000006086935381860251272_);" points="1743.657,2392.23 
					1852.811,1944.625 2123.831,2010.716 2014.677,2458.322 				"/>
				<g style="opacity:0.3;">
					
						<linearGradient id="SVGID_00000096773432866896527610000008715714027268194205_" gradientUnits="userSpaceOnUse" x1="5293.5532" y1="1418.5836" x2="4857.9927" y2="2107.3782" gradientTransform="matrix(0.8209 0.571 -0.571 0.8209 -432.4296 -2092.8533)">
						<stop  offset="0" style="stop-color:#FF9085"/>
						<stop  offset="1" style="stop-color:#FB6FBB"/>
					</linearGradient>
					<path style="fill:url(#SVGID_00000096773432866896527610000008715714027268194205_);" d="M3016.452,2790.074l92.876-380.854
						c-129.815,74.517-227.731,79.941-295.353,69.678c-158.074-23.991-197.602-140.787-388.783-202.677
						c-179.272-58.034-295.589-4.242-441.625,3.249c-129.472,6.641-300.128-22.23-511.1-156.647l-66.919,274.413L3016.452,2790.074z
						"/>
				</g>
			</g>
			
				<linearGradient id="SVGID_00000111172178296749942340000001305836522006206349_" gradientUnits="userSpaceOnUse" x1="5203.5601" y1="1751.4972" x2="5333.4727" y2="1751.4972" gradientTransform="matrix(0.6945 0.7195 -0.7195 0.6945 -797.5298 -2876.5127)">
				<stop  offset="0.0036" style="stop-color:#E38DDD"/>
				<stop  offset="1" style="stop-color:#9571F6"/>
			</linearGradient>
			<circle style="fill:url(#SVGID_00000111172178296749942340000001305836522006206349_);" cx="1601.253" cy="2130.6" r="64.957"/>
		</g>
		<g>
			<g>
				<g>
					<defs>
						<path id="SVGID_00000003099547487820443510000001474393164144979590_" d="M1498.082,2086.594
							c-64.047-60.103-148.559-157.716-186.801-295.736c-50.153-181.011,23.342-272.483,15.054-578.94
							c-5.24-193.77-10.85-328.946-108.538-401.248c-76.554-56.659-200.488-67.924-275.705-15.406
							c-62.54,43.667-98.721,136.542-109.761,202.836c-8.998,54.03-1.771,93.26-32.916,121.721
							c-31.829,29.087-66.19,12.62-95.952,34.164c-60.357,43.69-25.408,188.411-19.76,211.801
							c62.832,260.183,302.568,435.66,408.064,510.943C1178.994,1938.977,1313.931,2021.924,1498.082,2086.594z"/>
					</defs>
					
						<linearGradient id="SVGID_00000023961697428413613440000013297786282508333984_" gradientUnits="userSpaceOnUse" x1="668.5238" y1="1424.0071" x2="1498.0824" y2="1424.0071">
						<stop  offset="0" style="stop-color:#AA80F9"/>
						<stop  offset="0.9964" style="stop-color:#6165D7"/>
					</linearGradient>
					
						<use xlink:href="#SVGID_00000003099547487820443510000001474393164144979590_"  style="overflow:visible;fill:url(#SVGID_00000023961697428413613440000013297786282508333984_);"/>
					<clipPath id="SVGID_00000095336270388970146650000018434702037004810924_">
						<use xlink:href="#SVGID_00000003099547487820443510000001474393164144979590_"  style="overflow:visible;"/>
					</clipPath>
					<g style="opacity:0.5;clip-path:url(#SVGID_00000095336270388970146650000018434702037004810924_);">
						<path style="fill:#FFFFFF;" d="M1570.952,2135.52c-111.752-42.463-207.944-93.127-285.906-150.58
							c-115.493-85.112-187.432-182.917-213.823-290.7c-20.631-84.26-12.988-175.47-3.312-290.947
							c8.024-95.739,22.325-162.782,34.946-221.935c16.327-76.531,29.224-136.98,20.278-224.319
							c-9.086-88.754-38.37-177.021-87.034-262.348l6.214-3.546c49.164,86.2,78.748,175.414,87.938,265.163
							c9.058,88.461-3.944,149.396-20.4,226.542c-12.576,58.943-26.828,125.752-34.814,221.016
							c-9.998,119.339-17.221,205.546,3.134,288.671c25.979,106.11,97.01,202.551,211.116,286.641
							c77.438,57.069,173.057,107.42,284.205,149.655L1570.952,2135.52z"/>
						<path style="fill:#FFFFFF;" d="M1076.808,1337.768l-1.153-3.872c-51.434-172.652-143.749-280.71-212.136-340.956
							c-74.133-65.307-136.92-90.097-137.545-90.338l2.585-6.672c0.636,0.246,64.383,25.37,139.432,91.414
							c68.652,60.417,161.132,168.41,213.324,340.529c14.294-6.946,68.16-35.227,122.043-90.752
							c57.642-59.397,127.132-163.071,130.835-319.668l7.154,0.168c-3.762,159.055-74.441,264.365-133.067,324.7
							c-63.524,65.376-127.132,93.555-127.768,93.831L1076.808,1337.768z"/>
						<path style="fill:#FFFFFF;" d="M1063.443,1595.737l-2.494-0.732c-84.424-24.779-180.159-121.812-284.551-288.405
							c-77.532-123.73-131.111-241.768-131.642-242.947l6.518-2.945c2.11,4.669,212.328,465.583,409.224,526.688
							c10.022-14.349,69.113-97.416,143.432-170.335c42.858-42.053,115.14-69.255,168.23-84.669
							c57.338-16.647,105.289-23.525,105.768-23.593l0.999,7.084c-1.886,0.267-189.836,27.64-269.987,106.285
							c-80.756,79.235-143.407,170.509-144.029,171.421L1063.443,1595.737z"/>
						<path style="fill:#FFFFFF;" d="M1256.422,1961.902l-7.081-0.842c-0.943-0.114-95.7-11.718-219.427-54.858
							c-114.225-39.828-277.302-115.463-405.517-249.612L377.14,1397.894l5.17-4.943l247.257,258.697
							c127.185,133.069,289.095,208.168,402.527,247.737c103.766,36.197,186.975,50.075,211.046,53.6
							c-47.155-87.007-38.331-181.646,25.696-274.165c49.279-71.208,114.595-116.708,115.248-117.161l4.066,5.888
							c-0.646,0.445-65.019,45.319-113.54,115.5c-64.705,93.592-72.02,185.333-21.749,272.676L1256.422,1961.902z"/>
					</g>
				</g>
			</g>
			<g>
				<g>
					<defs>
						<path id="SVGID_00000157297999075759469210000003506566775468974258_" d="M1463.011,1947.928
							c-124.538,61.003-291.892,120.946-477.675,125.394c-47.412,1.135-340.303,8.148-364.639-115.071
							c-8.572-43.404,23.418-66.312,12.971-124.544c-12.379-69-65.217-81.003-128.213-144.094
							c-37.59-37.646-147.596-147.818-103.558-259.347c26.316-66.646,106.45-130.763,182.752-147.775
							c111.918-24.953,193.658,56.325,329.586,196.24c120.495,124.03,125.284,166.411,213.61,254.209
							C1193.397,1798.101,1297.695,1881.054,1463.011,1947.928z"/>
					</defs>
					
						<linearGradient id="SVGID_00000039828734786295391160000013055290951074463894_" gradientUnits="userSpaceOnUse" x1="1036.7933" y1="1408.985" x2="833.8452" y2="1953.7417">
						<stop  offset="0.0036" style="stop-color:#E38DDD"/>
						<stop  offset="1" style="stop-color:#9571F6"/>
					</linearGradient>
					
						<use xlink:href="#SVGID_00000157297999075759469210000003506566775468974258_"  style="overflow:visible;fill:url(#SVGID_00000039828734786295391160000013055290951074463894_);"/>
					<clipPath id="SVGID_00000176726359673296485470000002254583274109734290_">
						<use xlink:href="#SVGID_00000157297999075759469210000003506566775468974258_"  style="overflow:visible;"/>
					</clipPath>
					<g style="opacity:0.5;clip-path:url(#SVGID_00000176726359673296485470000002254583274109734290_);">
						<path style="fill:#FFFFFF;" d="M1460.063,1946.984c-137.004,0-276.569-36.177-416.752-108.234
							c-203.892-104.802-358.02-259.295-451.415-370.442c-65.152-77.541-107.906-177.414-127.076-296.847l7.063-1.135
							c18.961,118.139,61.184,216.845,125.49,293.38c92.972,110.646,246.373,264.424,449.207,368.681
							c194.698,100.075,388.118,130.433,574.893,90.242c140.204-30.173,271.72-97.293,390.884-199.5l4.66,5.432
							c-120.083,102.989-252.658,170.635-394.042,201.061C1569.177,1941.201,1514.816,1946.984,1460.063,1946.984z"/>
						<path style="fill:#FFFFFF;" d="M803.229,1675.702l-3.189-0.402c-353.814-44.593-447.729-246.733-468.088-307.625
							c-0.377-1.127-0.618-1.878-0.762-2.215l6.445-3.1c0.178,0.358,0.548,1.387,1.104,3.046
							c19.957,59.704,111.951,257.49,458.939,302.38c5.876-28.721,44.891-246.843-86.908-401.255l5.443-4.646
							c143.009,167.55,88.326,408.275,87.757,410.687L803.229,1675.702z"/>
						<path style="fill:#FFFFFF;" d="M716.318,1950.221c-10.176,0-19.751-0.37-28.725-1.013
							c-85.105-6.085-133.343-36.253-135.355-37.535l3.839-6.034c0.482,0.306,49.045,30.599,132.491,36.467
							c76.795,5.394,199.638-9.386,349.371-110.167c-0.566-20.147-8.656-196.81-117.54-385.344l-116.974-202.553l6.197-3.577
							l116.974,202.553c116.108,201.045,118.528,388.9,118.539,390.774l0.01,1.912l-1.582,1.071
							C908.641,1928.03,794.94,1950.221,716.318,1950.221z"/>
					</g>
				</g>
			</g>
		</g>
		<g>
			<g>
				<path style="fill:#26264F;" d="M3262.044,2919.146l-2815.903-24.002v71.019c0,19.276,12.282,35.667,28.916,38.588
					l796.253,139.85c9.45,1.66,19.032,2.1,28.568,1.312l1931.566-159.451c17.244-1.423,30.6-17.865,30.6-37.67V2919.146z"/>
				<g>
					<path style="fill:#26264F;" d="M2240.164,2805.335L475.26,2935.257c-31.582,2.324-57.26-22.379-57.26-55.183V1565.8
						c0-32.804,25.678-59.398,57.26-59.398h1764.904c26.019,0,47.055,24.04,47.055,53.695v1188.079
						C2287.219,2777.83,2266.182,2803.419,2240.164,2805.335z"/>
					
						<linearGradient id="SVGID_00000097495949870109078460000014867224713122842556_" gradientUnits="userSpaceOnUse" x1="446.1408" y1="2220.9048" x2="2315.3606" y2="2220.9048">
						<stop  offset="0" style="stop-color:#444B8C"/>
						<stop  offset="0.9964" style="stop-color:#26264F"/>
					</linearGradient>
					<path style="fill:url(#SVGID_00000097495949870109078460000014867224713122842556_);" d="M2268.305,2805.335L503.401,2935.257
						c-31.583,2.324-57.26-22.379-57.26-55.183V1565.8c0-32.804,25.678-59.398,57.26-59.398h1764.904
						c26.02,0,47.056,24.04,47.056,53.695v1188.079C2315.361,2777.83,2294.324,2803.419,2268.305,2805.335z"/>
					
						<linearGradient id="SVGID_00000000925853596240486730000009606198965237771429_" gradientUnits="userSpaceOnUse" x1="522.9136" y1="2208.6213" x2="2252.1484" y2="2208.6213">
						<stop  offset="0" style="stop-color:#AA80F9"/>
						<stop  offset="0.9964" style="stop-color:#6165D7"/>
					</linearGradient>
					<path style="fill:url(#SVGID_00000000925853596240486730000009606198965237771429_);" d="M2213.323,2721.573L569.5,2834.427
						c-25.701,1.764-46.586-18.512-46.586-45.292V1638.487c0-26.78,20.885-48.581,46.586-48.692l1643.824-7.087
						c21.463-0.093,38.825,19.606,38.825,43.999v1048.035C2252.148,2699.133,2234.787,2720.1,2213.323,2721.573z"/>
					<path style="fill:#FFFFFF;" d="M1448.185,1542.35c0,12.212-9.084,22.14-20.301,22.176
						c-11.231,0.036-20.346-9.857-20.346-22.097s9.114-22.168,20.346-22.177C1439.101,1520.244,1448.185,1530.137,1448.185,1542.35z
						"/>
					<path style="opacity:0.48;fill:#FFFFFF;" d="M503.395,2935.257l1755.975-129.264l8.936-0.657
						c11.938-0.879,22.793-6.78,31.084-15.732c-126.362-6.915-204.848-51.758-255.477-98.093
						c-101.674-93.051-84.038-184.813-193.682-245.992c-136.754-76.309-244.284,20.383-348.059-75.018
						c-62.913-57.839-32.026-100.97-109.441-187.404c-85.743-95.732-141.566-63.552-227.737-149.711
						c-108.955-108.943-54.463-193.703-148.315-271.921c-113.856-94.89-236.645-7.064-345.027-98.066
						c-46.746-39.249-72.397-96.311-85.79-156.997h-82.461c-31.582,0-57.261,26.594-57.261,59.398v1314.274
						C446.141,2912.875,471.814,2937.577,503.395,2935.257z"/>
				</g>
				
					<linearGradient id="SVGID_00000127035992869909592360000003958895518534661539_" gradientUnits="userSpaceOnUse" x1="446.1408" y1="2939.6252" x2="3262.0439" y2="2939.6252">
					<stop  offset="0" style="stop-color:#444B8C"/>
					<stop  offset="0.9964" style="stop-color:#26264F"/>
				</linearGradient>
				<path style="fill:url(#SVGID_00000127035992869909592360000003958895518534661539_);" d="M2338.649,2798.128L446.141,2934.883
					l825.169,144.928c9.45,1.659,19.032,2.1,28.568,1.313l1962.166-161.978l-893.29-120.089
					C2358.764,2797.714,2348.688,2797.403,2338.649,2798.128z"/>
				<polygon style="fill:#26264F;" points="722.287,2936.059 2297.857,2820.51 2785.482,2885.536 1223.485,3009.053 				"/>
			</g>
		</g>
		<g>
			<g>
				
					<linearGradient id="SVGID_00000000197767179819019130000007444365198705483960_" gradientUnits="userSpaceOnUse" x1="1961.8912" y1="1042.8042" x2="910.2372" y2="3217.6543">
					<stop  offset="0" style="stop-color:#FFFFFF"/>
					<stop  offset="0.9964" style="stop-color:#EBEFF2"/>
				</linearGradient>
				<path style="fill:url(#SVGID_00000000197767179819019130000007444365198705483960_);" d="M2487.43,2452.13
					c0,145.406-118.61,270.812-266.976,280.232L567.771,2837.291h0c174.756-11.095,314.298-147.775,314.298-305.45V718.036
					l1605.36,61.415V2452.13z"/>
				<g>
					
						<linearGradient id="SVGID_00000101786948661258902080000017857817531622173867_" gradientUnits="userSpaceOnUse" x1="1557.1217" y1="777.8395" x2="1106.4114" y2="1990.4629">
						<stop  offset="0" style="stop-color:#FF9085"/>
						<stop  offset="1" style="stop-color:#FB6FBB"/>
					</linearGradient>
					<path style="fill:url(#SVGID_00000101786948661258902080000017857817531622173867_);" d="M1726.006,1187.873
						c0,164.257-139.461,297.258-314.227,297.063c-177.858-0.198-324.367-137.816-324.367-307.373s146.509-302.444,324.367-296.899
						C1586.545,886.112,1726.006,1023.616,1726.006,1187.873z"/>
				</g>
				<polygon style="fill:#D8DEE8;" points="2383.572,1180.448 1806.269,1170.583 1806.269,1070.22 2383.572,1083.025 				"/>
				<polygon style="fill:#D8DEE8;" points="2383.572,1260.879 1806.269,1253.441 1806.269,1203.259 2383.572,1212.167 				"/>
				<polygon style="fill:#D8DEE8;" points="2383.572,1341.309 1806.269,1336.298 1806.269,1286.117 2383.572,1292.598 				"/>
				<g>
					<polygon style="fill:#D8DEE8;" points="2383.572,1772.51 1141.566,1789.724 1141.566,1739.885 2383.572,1725.71 					"/>
					
						<linearGradient id="SVGID_00000145771950066993913040000017061228873447797156_" gradientUnits="userSpaceOnUse" x1="1052.1676" y1="1721.8616" x2="1153.1027" y2="1995.3035">
						<stop  offset="0" style="stop-color:#FF9085"/>
						<stop  offset="1" style="stop-color:#FB6FBB"/>
					</linearGradient>
					<polygon style="fill:url(#SVGID_00000145771950066993913040000017061228873447797156_);" points="1040.249,1791.128 
						1096.497,1790.348 1096.497,1740.399 1040.249,1741.041 					"/>
				</g>
				<g>
					<polygon style="fill:#D8DEE8;" points="2383.572,1849.786 1141.566,1872.015 1141.566,1822.177 2383.572,1802.985 					"/>
					
						<linearGradient id="SVGID_00000020391462406984463090000010044357527247399569_" gradientUnits="userSpaceOnUse" x1="1025.1959" y1="1731.3801" x2="1125.8036" y2="2003.9354">
						<stop  offset="0" style="stop-color:#FF9085"/>
						<stop  offset="1" style="stop-color:#FB6FBB"/>
					</linearGradient>
					<polygon style="fill:url(#SVGID_00000020391462406984463090000010044357527247399569_);" points="1040.249,1873.829 
						1096.497,1872.822 1096.497,1822.873 1040.249,1823.742 					"/>
				</g>
				<g>
					<polygon style="fill:#D8DEE8;" points="2383.572,1927.061 1141.566,1954.307 1141.566,1904.469 2383.572,1880.26 					"/>
					
						<linearGradient id="SVGID_00000018952007243722913220000004269832801985062814_" gradientUnits="userSpaceOnUse" x1="1052.2727" y1="1887.321" x2="1152.553" y2="2158.9893">
						<stop  offset="0" style="stop-color:#FF9085"/>
						<stop  offset="1" style="stop-color:#FB6FBB"/>
					</linearGradient>
					<polygon style="fill:url(#SVGID_00000018952007243722913220000004269832801985062814_);" points="1040.249,1956.53 
						1096.497,1955.296 1096.497,1905.347 1040.249,1906.443 					"/>
				</g>
				<g>
					<polygon style="fill:#D8DEE8;" points="2383.572,2004.336 1141.566,2036.599 1141.566,1986.76 2383.572,1957.535 					"/>
					
						<linearGradient id="SVGID_00000163794078494211243830000008997956672053469375_" gradientUnits="userSpaceOnUse" x1="1025.4767" y1="1897.316" x2="1125.4297" y2="2168.0977">
						<stop  offset="0" style="stop-color:#FF9085"/>
						<stop  offset="1" style="stop-color:#FB6FBB"/>
					</linearGradient>
					<polygon style="fill:url(#SVGID_00000163794078494211243830000008997956672053469375_);" points="1040.249,2039.231 
						1096.497,2037.77 1096.497,1987.821 1040.249,1989.145 					"/>
				</g>
				<g>
					<polygon style="fill:#D8DEE8;" points="2383.572,2158.886 1040.249,2204.633 1040.249,2154.547 2383.572,2112.086 					"/>
				</g>
				<g>
					<polygon style="fill:#D8DEE8;" points="2383.572,2236.161 1040.249,2287.334 1040.249,2237.248 2383.572,2189.361 					"/>
				</g>
				<g>
					<polygon style="fill:#D8DEE8;" points="2383.572,2313.436 1040.249,2370.035 1040.249,2319.949 2383.572,2266.636 					"/>
				</g>
				<g>
					<polygon style="fill:#D8DEE8;" points="2383.572,2390.711 1040.249,2452.737 1040.249,2402.65 2383.572,2343.911 					"/>
				</g>
			</g>
			<g>
				<path style="fill:#FFFFFF;" d="M1510.402,1359.093l-28.622-93.532l-145.215-0.701l-29.14,94.233h-92.389l142.367-397.087
					l103.26,2.104l139.374,394.984H1510.402z M1461.748,1195.512c-26.593-85.179-41.594-133.452-44.951-144.653
					c-3.362-11.2-5.764-20.053-7.217-26.552c-5.996,22.928-23.185,79.642-51.628,170.33L1461.748,1195.512z"/>
			</g>
		</g>
		<g>
			<path style="fill:#D8DEE8;" d="M3123.766,3169.787l-430.183,39.671c-12.191,1.124-22.987-7.848-24.111-20.04l0,0
				c-1.124-12.191,7.847-22.986,20.04-24.111l430.183-39.671c12.191-1.124,22.985,7.848,24.11,20.039l0,0
				C3144.93,3157.868,3135.958,3168.662,3123.766,3169.787z"/>
			<path style="fill:#D8DEE8;" d="M3241.194,3114.433l-95.581,8.815l-4.978-53.977l95.582-8.815c0.758-0.07,1.429,0.488,1.5,1.246
				l4.724,51.231C3242.51,3113.692,3241.952,3114.363,3241.194,3114.433z"/>
			<path style="fill:#26264F;" d="M1498.082,3259.626l-40.113,3.699c-4.512,0.416-8.508-2.905-8.924-7.417l0,0
				c-0.416-4.513,2.904-8.508,7.417-8.925l40.113-3.699L1498.082,3259.626z"/>
			<path style="fill:#D8DEE8;" d="M1474.166,3253.591L1474.166,3253.591c0.763,8.274,7.235,14.872,15.493,15.795l170.445,19.054
				l-9.51-103.117l-164.086,49.905C1478.559,3237.647,1473.403,3245.317,1474.166,3253.591z"/>
			<path style="fill:#FFFFFF;" d="M1484.479,3245.415L1484.479,3245.415c0.209,2.266,6.203,3.684,14.349,3.394l166.834-20.103
				l-2.604-28.243l-165.093,38.99C1489.904,3240.659,1484.27,3243.149,1484.479,3245.415z"/>
			
				<linearGradient id="SVGID_00000163054154026658312920000017804743390120113815_" gradientUnits="userSpaceOnUse" x1="3459.0339" y1="4492.4805" x2="3556.8494" y2="4856.7593" gradientTransform="matrix(0.9957 -0.0918 0.0918 0.9957 -1534.2275 -1214.2115)">
				<stop  offset="0" style="stop-color:#FFC444"/>
				<stop  offset="0.9964" style="stop-color:#F36F56"/>
			</linearGradient>
			<path style="fill:url(#SVGID_00000163054154026658312920000017804743390120113815_);" d="M3153.172,3148.835l-1497.109,139.98
				c-28.475,2.625-37.984-100.492-9.509-103.118l1497.108-139.98c16.987-1.566,32.026,10.935,33.593,27.92l3.837,41.606
				C3182.658,3132.229,3170.157,3147.268,3153.172,3148.835z"/>
			<polygon style="fill:#FFFFFF;" points="2821.621,3119.172 1644.75,3229.62 1642.509,3205.317 2819.38,3094.869 			"/>
			
				<linearGradient id="SVGID_00000029767468570377842610000018235094095868438402_" gradientUnits="userSpaceOnUse" x1="3936.0376" y1="4723.7563" x2="3949.8015" y2="4723.7563" gradientTransform="matrix(0.9957 -0.0918 0.0918 0.9957 -1534.2275 -1214.2115)">
				<stop  offset="0" style="stop-color:#AA80F9"/>
				<stop  offset="0.9964" style="stop-color:#6165D7"/>
			</linearGradient>
			<polygon style="fill:url(#SVGID_00000029767468570377842610000018235094095868438402_);" points="2837.003,3178.405 
				2823.301,3179.668 2813.753,3076.14 2827.455,3074.876 			"/>
			
				<rect x="3132.557" y="3046.327" transform="matrix(0.9958 -0.0918 0.0918 0.9958 -271.1547 301.2662)" style="fill:#FFFFFF;" width="13.76" height="103.967"/>
			
				<linearGradient id="SVGID_00000003809314634554693970000009416869546006045348_" gradientUnits="userSpaceOnUse" x1="3458.7292" y1="4491.3408" x2="3556.783" y2="4856.5073" gradientTransform="matrix(0.9957 -0.0918 0.0918 0.9957 -1534.2275 -1214.2115)">
				<stop  offset="0.0036" style="stop-color:#F36F56"/>
				<stop  offset="1" style="stop-color:#FFC444"/>
			</linearGradient>
			<path style="opacity:0.3;fill:url(#SVGID_00000003809314634554693970000009416869546006045348_);" d="M3143.662,3045.716
				l-717.434,68.079c-81.766,75.233-138.83,87.304-178.357,80.272c-27.449-4.885-62.892-21.892-117.333-13.767
				c-52.576,7.846-55.467,29.071-98.299,30.449c-63.499,2.043-85.289-43.705-132.702-29.564
				c-25.497,7.604-21.429,21.499-56.699,42.865c-13.08,7.927-67.555,40.924-130.031,25.65c-36.339-8.885-62.158-30.871-79.23-51.16
				c-10.704,28.11-0.071,92.354,22.488,90.274l1497.108-139.979c16.985-1.567,29.486-16.605,27.919-33.593l-3.837-41.606
				C3175.688,3056.651,3160.649,3044.15,3143.662,3045.716z"/>
		</g>
	</g>
</g>
</svg>
