<?xml version="1.0" encoding="utf-8"?>
<!-- Generator: Adobe Illustrator 27.5.0, SVG Export Plug-In . SVG Version: 6.00 Build 0)  -->
<svg version="1.1" id="Layer_1" xmlns="http://www.w3.org/2000/svg" xmlns:xlink="http://www.w3.org/1999/xlink" x="0px" y="0px"
	 viewBox="0 0 900 900" style="enable-background:new 0 0 900 900;" xml:space="preserve">
<g>
	<path style="fill:#FF6248;" d="M617.559,351.85c-0.941,12.867-6.788,23.84-16.886,31.758l-22.6-28.845
		c1.883-1.473,2.702-2.934,2.923-5.293c0.011-0.033,0.011-0.066,0.011-0.089c0.011-0.077,0.011-0.144,0.022-0.21
		c0.088-1.273,0.188-13.266-24.926-42.565c-5.359-6.256-10.796-12.048-15.547-16.864c-0.255-0.255-0.498-0.509-0.753-0.764
		c-7.64-7.729-13.288-12.778-13.509-12.978l22.63-27.784c3.875,2.625,18.606,15.47,34.728,34.239
		C607.837,310.603,618.932,333.303,617.559,351.85z"/>
	<path style="fill:#C6392A;" d="M581.206,349.403l-0.199-0.022c0.011-0.077,0.011-0.144,0.022-0.21
		c0.088-1.273,0.188-13.266-24.926-42.565c-5.359-6.256-10.796-12.048-15.547-16.864l5.215-13.044
		C567.177,285.179,587.109,324.677,581.206,349.403z"/>
	<g>
		<rect x="484.452" y="785.181" style="fill:#3D201C;" width="29.04" height="19.988"/>
		<path style="fill:#D2D3D6;" d="M258.93,830.065c0,7.027,5.697,12.725,12.725,12.725l311.115,0c7.026,0,12.724-5.697,12.724-12.725
			l0,0c0-7.027-5.698-12.725-12.724-12.725l-311.115,0C264.626,817.34,258.93,823.037,258.93,830.065L258.93,830.065z"/>
		<path style="fill:none;stroke:#823C33;stroke-width:57.5799;stroke-miterlimit:10;" d="M497.863,484.609l14.871,104.533
			c1.659,11.665,2.535,23.586,2.545,35.728c0.011,12.142-0.841,24.065-2.479,35.733l-18.196,129.622"/>
		<rect x="413.807" y="785.181" style="fill:#3D201C;" width="32.056" height="19.988"/>
		<path style="fill:#823C33;" d="M526.778,540.711h-44.996c-0.933,0-1.732-0.668-1.898-1.586l-0.249-1.376
			c-0.017-0.092-0.025-0.186-0.026-0.279c-0.076-6.355-5.246-11.489-11.629-11.489c-3.21,0-6.11,1.3-8.2,3.4
			c-2.12,2.1-3.41,5.02-3.41,8.23l-0.07,250.682c0,1.065-0.864,1.928-1.929,1.928h-52.793c-1.065,0-1.929-0.864-1.929-1.929
			l0.009-33.141l0.01-36.7l0.05-240.93V465.06c0-1.065,0.863-1.929,1.929-1.929h124.606c1.06,0,1.921,0.855,1.929,1.915
			l0.076,10.965l0.446,62.758C528.714,539.839,527.848,540.711,526.778,540.711z"/>
		<g>
			<path style="fill:#A5AAB5;" d="M440.634,733.901v56.32h-39.41l-8.23-35.07l-8.61-36.7c0,0,3.56,0,8.62,0h32.18
				C433.724,718.451,440.634,725.371,440.634,733.901z"/>
		</g>
		<path style="fill:#D2D3D6;" d="M473.55,469.441l-2.99-1.7c0.55,1.91,0.32,4.14-0.82,6.16c-2.07,3.6-6.24,5.09-9.4,3.34
			c3.12,1.8,3.99,6.16,1.94,9.78c-2.06,3.62-6.28,5.1-9.42,3.32c3.14,1.78,4.03,6.17,1.97,9.8c-2.06,3.62-6.28,5.11-9.43,3.32
			l-15.96-9.06c-3.14,3.01-7.86,3.81-11.67,1.65l-3.4-1.94c-3.81-2.16-5.54-6.62-4.56-10.86l-10.09-5.73v-14.39h77.41
			L473.55,469.441z"/>
		<g>
			<path style="fill:#FFFFFF;" d="M378.625,331.883c5.769-16.455,15.845-33.087,24.991-45.909
				C389.543,291.189,377.507,303.812,378.625,331.883z"/>
		</g>
		<polygon style="fill:#D2D3D6;" points="399.719,463.131 399.719,492.091 528.255,471.091 528.167,463.131 		"/>
		<path style="fill:#FF6248;" d="M555.716,306.805l-3.599,58.344L442.24,463.134h-42.521c0,0-11.981-19.223-11.981-19.699
			l-0.831-55.011l-0.354-23.176l-1.229-81.265l0.742-33.385c8.227-19.965,62.264-21.526,62.264-21.526
			c6.057-0.842,12.335-1.296,18.769-1.296c9.467,0,18.592,0.975,27.173,2.746c1.185,0.255,2.37,0.521,3.532,0.797
			c0.709,0.166,1.417,0.343,2.115,0.52c0.011,0.011,9.944,1.019,21.825,3.699c13.376,3.034,24.948,9.002,32.012,17.274
			C567.11,268.459,555.716,306.805,555.716,306.805z"/>
		<path style="fill:#C6392A;" d="M442.24,463.131h85.927c0.343-0.321,19.268-21.902,19.268-21.902v-76.085L442.24,463.131z"/>
		<path style="fill:#F48967;" d="M455.44,242.273c0,9.49,7.693,17.184,17.184,17.184l0,0c9.49,0,17.183-7.693,17.183-17.184v-23.29
			c0-9.49-7.693-17.184-17.183-17.184l0,0c-9.491,0-17.184,7.693-17.184,17.184V242.273z"/>
		<path style="fill:#F48967;" d="M409.249,164.018c0.753,4.761,5.222,8.011,9.982,7.258c4.761-0.753,8.01-5.223,7.257-9.985
			c-0.754-4.761-5.223-8.009-9.984-7.256C411.744,154.789,408.496,159.257,409.249,164.018z"/>
		<path style="fill:#F48967;" d="M498.685,147.503c0.753,4.761,5.222,8.01,9.982,7.257c4.76-0.753,8.01-5.222,7.256-9.984
			c-0.753-4.762-5.223-8.01-9.983-7.256C501.179,138.273,497.931,142.741,498.685,147.503z"/>
		<g>
			<path style="fill:#F48967;" d="M503.003,105.927l7.231,73.998c0.667,4.214,0.207,8.662-1.59,13.008
				c-1.793,4.344-4.706,8.065-8.32,10.998l-9.885,8.268c-4.776,3.874-10.764,6.644-17.506,7.711
				c-6.751,1.068-13.302,0.281-19.038-1.93l-12.048-6.574c-4.237-1.633-8.061-4.205-11.03-7.694
				c-2.968-3.489-4.74-7.474-5.389-11.581l-16.287-71.355L503.003,105.927z"/>
			<path style="fill:#FFB287;" d="M502.679,105.979l6.19,67.414c0.665,4.205,0.209,8.66-1.591,13.006
				c-1.792,4.345-4.706,8.065-8.326,10.999l-9.888,8.27c-4.767,3.871-10.753,6.642-17.503,7.709
				c-6.741,1.066-13.294,0.279-19.03-1.93l-12.056-6.575c-4.237-1.633-8.055-4.205-11.031-7.693
				c-2.042-2.404-3.511-5.033-4.448-7.778l-15.856-71.843L502.679,105.979z"/>
		</g>
		<path style="fill:#F48967;" d="M472.961,159.913c0,0-4.896,10.453-15.822,2.502L472.961,159.913z"/>
		<path style="fill:#FFFFFF;" d="M454.11,182.241c1.242,7.858,8.618,13.219,16.478,11.976c7.857-1.243,13.217-8.619,11.974-16.477
			L454.11,182.241z"/>
		<polygon style="fill:#C6392A;" points="448.33,436.956 445.008,463.131 399.719,463.131 387.738,443.432 387.276,415.949 
			468.609,420.327 		"/>
		<g>
			<path style="fill:#FF6248;" d="M378.628,331.885c0.012,0.454,0.034,0.919,0.056,1.384c0,0.266,0.011,0.521,0.011,0.775
				c1.251-3.754,2.724-7.529,4.351-11.273c0,0,0.011-0.011,0.011-0.022c1.407-10.087,6.335-19.522,14.063-26.442
				c2.295-3.703,4.623-7.217,6.896-10.476C389.773,290.957,377.5,303.553,378.628,331.885z"/>
			<path style="fill:#FF6248;" d="M374.124,360.665c-0.302-8.325,1.505-17.424,4.571-26.621c0-0.255-0.011-0.509-0.011-0.775
				c-0.023-0.465-0.044-0.93-0.056-1.384c-1.118-28.07,10.919-40.694,24.992-45.909c0.133-0.044,0.255-0.099,0.387-0.132
				c5.36-7.751,10.42-14.096,14.107-18.193l-26.732-24.06c-4.667,4.5-15.49,16.286-29.132,38.754
				c-19.334,31.857-27.538,60.337-24.383,84.665c0.579,4.454,2.204,8.899,4.728,13.257L374.124,360.665z"/>
		</g>
		<path style="fill:#4F2F29;" d="M486.77,800.529h19.535h10.957c1.052,5.158,16.428,8.319,22.219,9.039l35.102,6.463
			c0.904,1.971,1.425,4.154,1.425,6.464c0,8.561-8.955,9.039-17.516,9.039l-30.084-0.001h-10.966l-7.723-8.546v8.547l-22.949-0.001
			c-8.562,0-9.735-6.941-9.735-15.502C477.035,807.469,478.208,800.529,486.77,800.529z"/>
		<rect x="475.78" y="822.987" width="33.938" height="8.547"/>
		<rect x="517.262" y="826.161" width="57.822" height="5.374"/>
		<polygon points="517.262,826.161 509.719,822.987 517.262,831.535 		"/>
		<path style="fill:#4F2F29;" d="M416.122,800.529h19.536h10.957c1.053,5.158,16.428,8.319,22.221,9.039l35.101,6.463
			c0.906,1.971,1.424,4.154,1.424,6.464c0,8.561-8.954,9.039-17.514,9.039l-30.085-0.001h-10.968l-7.721-8.546v8.547l-22.951-0.001
			c-8.561,0-9.731,0.601-9.731-7.96C406.391,815.011,407.561,800.529,416.122,800.529z"/>
		<rect x="405.135" y="822.987" width="33.938" height="8.547"/>
		<rect x="446.615" y="826.161" width="57.824" height="5.374"/>
		<polygon points="446.615,826.161 439.073,822.987 446.615,831.535 		"/>
		<g>
			<g>
				<path style="fill:#442E2C;" d="M339.045,710.441c0,2.563,2.061,4.625,4.605,4.625c2.563,0,4.626-2.063,4.626-4.625
					c0-9.327,7.591-16.901,16.899-16.901h3.082c9.329,0,16.921,7.574,16.921,16.901c0,2.563,2.062,4.625,4.604,4.625
					c1.698,0,3.2-0.925,4.009-2.294c0.386-0.674,0.617-1.483,0.617-2.331c0-14.415-11.736-26.13-26.151-26.13h-3.082
					C350.781,684.311,339.045,696.026,339.045,710.441z"/>
			</g>
			<g>
				<path style="fill:#612F26;" d="M296.555,725.908c0-4.273,1.734-8.135,4.52-10.933c2.801-2.782,6.659-4.52,10.93-4.52h100.519
					v46.637H296.555V725.908z"/>
				<path style="fill:#612F26;" d="M412.525,757.092v76.882h-97.441c-8.533,0-15.455-6.922-15.455-15.453v-61.428H412.525z"/>
			</g>
			<path style="fill:#893C31;" d="M427.97,725.901v92.62c0,4.27-1.73,8.13-4.53,10.92c-2.79,2.8-6.65,4.53-10.92,4.53
				c-8.54,0-15.46-6.92-15.46-15.45v-92.62c0-4.27,1.73-8.13,4.53-10.92c2.8-2.8,6.66-4.53,10.93-4.53
				C421.05,710.451,427.97,717.371,427.97,725.901z"/>
			<rect x="299.629" y="757.092" style="fill:#301D1B;" width="97.435" height="7.175"/>
			<path style="fill:#C0BCBD;" d="M346.412,761.88c0,3.159,2.559,5.718,5.717,5.718l0,0c3.155,0,5.717-2.559,5.717-5.718v-4.326
				c0-3.158-2.562-5.718-5.717-5.718l0,0c-3.158,0-5.717,2.56-5.717,5.718V761.88z"/>
		</g>
		<polygon style="fill:#F48967;" points="483.715,255.394 472.624,282.895 461.15,255.727 		"/>
		<path style="fill:#C6392A;" d="M472.624,282.895l8.881-22.013l16.088,12.878c7.652-15.513,1.473-38.224,0.211-42.443
			c-1.162-0.277-2.348-0.542-3.533-0.797c-0.497,4.097-1.417,11.66-1.816,15.004c-0.554,4.706-14.949,4.573-14.949,4.573
			L472.624,282.895z"/>
		<path style="fill:#C6392A;" d="M472.624,282.895l-10.045-22.013l-16.088,12.878c-7.652-15.513-0.146-40.449,1.116-44.668
			c1.162-0.277,3.126-0.216,4.311-0.471c0.497,4.097-0.689,13.558-0.29,16.902c0.554,4.706,15.24,6.528,15.24,6.528L472.624,282.895
			z"/>
		<path style="fill:#FFFFFF;" d="M489.807,224.9c0,0-0.311,20.624-12.302,25.191c4.294,2.491,16.474,16.056,16.474,16.056
			s6.851-27.864,1.695-35.317C491.626,227.253,489.807,224.9,489.807,224.9z"/>
		<path style="fill:#FFFFFF;" d="M455.396,224.9c0,0-2.895,20.624,11.472,27.152l-15.644,14.095c0,0-6.851-27.864-1.696-35.317
			C453.577,227.253,455.396,224.9,455.396,224.9z"/>
		<path style="fill:#40231D;stroke:#40231D;stroke-width:1.1073;stroke-miterlimit:10;" d="M478.299,144.897
			c0,1.593,1.29,2.885,2.884,2.885c1.595,0,2.884-1.292,2.884-2.885c0-1.594-1.289-2.886-2.884-2.886
			C479.589,142.011,478.299,143.303,478.299,144.897z"/>
		<circle style="fill:#40231D;stroke:#40231D;stroke-width:1.1073;stroke-miterlimit:10;" cx="443.458" cy="151.608" r="2.996"/>
		<path style="fill:none;stroke:#4F2F29;stroke-width:3.3219;stroke-linecap:round;stroke-miterlimit:10;" d="M491.615,137.3
			c-1.983-2.121-9.067-4.265-13.34-2.326"/>
		<path style="fill:none;stroke:#4F2F29;stroke-width:3.3219;stroke-linecap:round;stroke-miterlimit:10;" d="M432.589,146.14
			c1.405-2.541,7.75-6.352,12.367-5.516"/>
		<path style="fill:#FFFFFF;" d="M451.917,380.051c0.395,0.939,1.477,1.38,2.416,0.986l1.639-0.69
			c0.941-0.395,1.382-1.477,0.986-2.416l0,0c-0.395-0.939-1.477-1.38-2.417-0.985l-1.639,0.689
			C451.963,378.029,451.521,379.112,451.917,380.051L451.917,380.051z"/>
		<path style="fill:#4F2F29;" d="M405.671,124.942l0.014,0.022c-7.951-47.83,59.989-60.29,71.819-44.517
			c24.357-4.856,30.058,18.95,30.958,37.122l-0.782,36.358h-2.074l-2.401-19.021v0.001v-0.001l-0.234-0.939
			c-0.542-1.527-2.362-4.892-8.522-9.894v-0.001c-6.396-4.301-11.978-10.199-14.652-13.229
			c-6.318,5.867-19.242,14.382-43.614,18.772l0.01,0.003c0,0-0.047,0.006-0.114,0.016c-0.541,0.096-1.086,0.191-1.637,0.283
			c-4.516,0.907-16.295,4.195-17.496,13.943l3.923,21.539H419.2l-11.577-32.498c-0.862-2.711-1.5-5.325-1.923-7.839L405.671,124.942
			z"/>
	</g>
	<path style="fill:#9BD880;" d="M344.953,336.428c-11.905-15.828-37.669-36.212-54.387-41.952l0.131-6.024l55.581-30.952
		l35.845,70.156L344.953,336.428z"/>
	<path style="fill:#68A55B;" d="M340.161,321.631c-11.905-15.828-30.085-30.243-49.578-33.187l55.712-36.976l35.845,70.156
		L340.161,321.631z"/>
	<g id="XMLID_29_">
		<g>
			<polygon style="fill:#9BD880;" points="506.982,482.802 462.848,514.183 300.494,271.212 344.628,239.831 			"/>
			
				<rect x="417.086" y="188.292" transform="matrix(0.8315 -0.5556 0.5556 0.8315 -107.2356 315.3091)" style="fill:#68A55B;" width="97.994" height="292.222"/>
			<path style="fill:#3C7233;" d="M420.64,204.785L568.45,425.989l-56.918,38.032L363.723,242.818L420.64,204.785L420.64,204.785z
				 M421.851,198.701l-64.212,42.907l152.684,228.498l64.212-42.907L421.851,198.701L421.851,198.701z"/>
			<g>
				<path style="fill:#3C7233;" d="M360.681,242.212l16.17-10.805c4.507,7.463,1.371,18.03-7.162,24.288L360.681,242.212z"/>
				<path style="fill:#3C7233;" d="M375.971,234.634c0.95,2.63,0.996,5.632,0.099,8.702c-1,3.422-3.052,6.584-5.893,9.141
					l-6.454-9.659L375.971,234.634L375.971,234.634z M377.402,228.402l-19.763,13.206l11.445,17.127
					c0.31-0.183,0.613-0.377,0.918-0.581c10.453-6.985,14.182-19.747,8.33-28.506C378.041,229.214,377.731,228.793,377.402,228.402
					L377.402,228.402z"/>
			</g>
			<g>
				<path style="fill:#3C7233;" d="M417.259,219.001c-5.323,0-9.928-2.036-12.839-5.629l16.772-11.207l8.664,12.966
					C426.004,217.629,421.544,219.001,417.259,219.001z"/>
				<path style="fill:#3C7233;" d="M420.586,205.208l6.15,9.203c-3.012,1.557-6.302,2.397-9.476,2.397
					c-3.689,0-6.968-1.098-9.41-3.089L420.586,205.208L420.586,205.208z M421.796,199.123l-20.441,13.659
					c0.147,0.264,0.308,0.519,0.479,0.775c3.356,5.023,9.134,7.638,15.424,7.638c4.678,0,9.641-1.447,14.099-4.426
					c0.518-0.346,1.025-0.709,1.503-1.085L421.796,199.123L421.796,199.123z"/>
			</g>
			<g>
				<path style="fill:#3C7233;" d="M555.033,437.471c-4.507-7.462-1.371-18.029,7.162-24.287l9.008,13.482L555.033,437.471z"/>
				<path style="fill:#3C7233;" d="M561.708,416.404l6.453,9.657l-12.249,8.185C553.841,428.541,556.146,421.417,561.708,416.404
					L561.708,416.404z M562.801,410.144c-0.31,0.183-0.613,0.377-0.918,0.581c-10.453,6.985-14.182,19.747-8.33,28.505
					c0.29,0.434,0.6,0.855,0.929,1.246l19.763-13.206L562.801,410.144L562.801,410.144z"/>
			</g>
			<g>
				<path style="fill:#3C7233;" d="M502.029,453.747c3.851-2.497,8.311-3.869,12.596-3.869c5.323,0,9.927,2.035,12.839,5.629
					l-16.772,11.207L502.029,453.747z"/>
				<path style="fill:#3C7233;" d="M514.627,447.684v4.387c3.689,0,6.966,1.098,9.408,3.089l-12.737,8.511l-6.149-9.203
					c3.012-1.557,6.302-2.397,9.477-2.397L514.627,447.684L514.627,447.684z M514.625,447.684c-4.678,0-9.641,1.447-14.099,4.427
					c-0.518,0.346-1.025,0.709-1.503,1.085l11.065,16.56l20.441-13.659c-0.147-0.264-0.308-0.519-0.479-0.775
					C526.693,450.299,520.916,447.684,514.625,447.684L514.625,447.684z"/>
			</g>
			
				<ellipse transform="matrix(0.8315 -0.5556 0.5556 0.8315 -107.2292 315.3151)" style="fill:#4A843E;" cx="466.095" cy="334.395" rx="24.289" ry="39.872"/>
			<g>
				<path style="fill:#D8E6EA;" d="M425.408,273.505c-3.477,2.323-9.387-0.42-13.201-6.128c-3.814-5.708-4.087-12.218-0.61-14.541
					c3.477-2.323,9.387,0.42,13.201,6.128C428.612,264.671,428.885,271.182,425.408,273.505z"/>
				<path style="fill:#D8E6EA;" d="M520.594,415.955c-3.477,2.323-9.387-0.42-13.201-6.128s-4.087-12.218-0.61-14.542
					c3.477-2.323,9.387,0.42,13.201,6.128C523.798,407.121,524.071,413.632,520.594,415.955z"/>
			</g>
			<polygon style="fill:#3C7233;" points="527.039,337.436 401.911,422.938 374.73,382.261 499.858,296.759 			"/>
			
				<rect x="434.536" y="284.43" transform="matrix(0.5556 0.8315 -0.8315 0.5556 484.9431 -239.1009)" style="fill:#D3C4AE;" width="63.207" height="99.323"/>
			<polygon style="fill:#FFFFFF;" points="398.38,419.27 363.263,366.716 408.037,334.906 443.154,387.46 			"/>
			
				<rect x="453.38" y="269.79" transform="matrix(0.5556 0.8315 -0.8315 0.5556 468.4211 -237.4734)" style="fill:#AD3B3B;" width="5.954" height="99.323"/>
			
				<rect x="472.945" y="299.07" transform="matrix(0.5556 0.8315 -0.8315 0.5556 501.4616 -240.7285)" style="fill:#AD3B3B;" width="5.954" height="99.323"/>
			<polygon style="fill:#FF4A4A;" points="372.786,380.766 369.478,375.815 414.147,344.076 417.455,349.026 			"/>
			<polygon style="fill:#FF4A4A;" points="392.351,410.046 389.043,405.095 433.712,373.356 437.02,378.307 			"/>
			<path style="opacity:0.33;fill:#4A843E;" d="M357.521,286.113c-0.788,0.527-1.727,0.682-2.603,0.518
				c-0.872-0.183-1.68-0.686-2.207-1.474l-23.433-35.069l5.755-3.845l23.433,35.069
				C359.527,282.899,359.109,285.052,357.521,286.113z"/>
			<path style="opacity:0.33;fill:#4A843E;" d="M355.873,308.635c-0.8,0.534-1.739,0.689-2.603,0.517
				c-0.864-0.172-1.672-0.674-2.207-1.474l-33.329-49.878l5.755-3.845l33.329,49.878
				C357.88,305.421,357.461,307.574,355.873,308.635z"/>
			<path style="opacity:0.33;fill:#4A843E;" d="M460.468,468.94c0.799-0.534,1.739-0.689,2.603-0.517
				c0.864,0.172,1.672,0.674,2.207,1.474l19.708,29.494l-5.755,3.845l-19.708-29.494C458.461,472.154,458.88,470.001,460.468,468.94
				z"/>
		</g>
	</g>
	<g>
		<g>
			<path style="fill:#FF6248;" d="M579.269,354.021c-9.966,6.09-36.728-1.717-54.599-5.375l-5.038,28.537
				c0.137,0.048,1.721,2.532,3.285,5.001c1.554,2.467,3.076,4.917,3.076,4.917c5.31,1.554,7.641,2.294,15.734,3.771l0.185,0.034
				c23.925,4.343,45.938,3.254,58.948-7.542L579.269,354.021z"/>
		</g>
	</g>
	<g>
		<path style="fill:#FF6248;" d="M342.597,380.267c11.578,19.996,42.064,38.186,77.103,47.268c0,0,11.87-3.289,12.977-3.211
			l4.296-26.288l0.366-2.215c-0.023,0-0.731-0.233-1.971-0.665c-3.344-1.152-10.608-3.754-19.012-7.12c0,0-0.011,0-0.022-0.011
			c-12.036-4.817-26.399-11.206-34.858-17.186c-4.296-3.034-7.075-5.979-7.263-8.548c-0.038-0.539-0.067-1.081-0.087-1.627
			L342.597,380.267z"/>
		<g>
			<path style="fill:#FFB287;" d="M452.608,431.181c-1.319-0.215-2.554-0.934-3.396-2.105c-0.489-0.676-0.783-1.433-0.908-2.205
				l-15.623-2.552l4.657-28.5l15.448,2.524c0.161-0.559,0.411-1.104,0.762-1.61c0.477-0.691,1.086-1.236,1.768-1.63l12.804-7.399
				c0.757-0.386,1.589-0.5,2.365-0.372c0.077,0.012,0.152,0.034,0.228,0.05c0.081,0.009,0.162,0.013,0.244,0.026l11.586,1.894
				c2.102,0.343,3.528,2.328,3.185,4.43c-0.344,2.105-2.327,3.53-4.43,3.186l-10.249-1.674l-3.076,3.593l7.892,1.29h-0.001
				l22.436,3.667c2.103,0.344,3.531,2.328,3.187,4.43c-0.344,2.103-2.327,3.53-4.431,3.186l-22.436-3.667l-0.194,1.189l24.256,3.965
				c2.104,0.343,3.531,2.326,3.188,4.43c-0.344,2.102-2.327,3.529-4.43,3.185l-24.259-3.964l-0.187,1.147l21.107,3.449
				c2.102,0.344,3.529,2.328,3.185,4.431c-0.344,2.104-2.327,3.529-4.429,3.186l-21.107-3.45l-0.187,1.147l17.626,2.881
				c2.103,0.344,3.53,2.327,3.186,4.43c-0.344,2.102-2.328,3.531-4.43,3.186l-17.626-2.881l-0.001,0.002L452.608,431.181z"/>
		</g>
		<g>
			<path style="fill:#FFB287;" d="M498.155,376.501c1.31,0.264,2.719,0.027,3.919-0.773c0.696-0.461,1.238-1.065,1.627-1.744
				l15.517,3.119l5.69-28.312l-15.343-3.083c0.047-0.58,0.005-1.178-0.146-1.776c-0.203-0.815-0.58-1.539-1.079-2.149l-9.372-11.437
				c-0.572-0.628-1.31-1.027-2.081-1.182c-0.076-0.016-0.155-0.022-0.231-0.033c-0.079-0.021-0.157-0.044-0.238-0.061l-11.507-2.311
				c-2.088-0.42-4.122,0.935-4.541,3.023c-0.42,2.091,0.933,4.123,3.022,4.543l10.179,2.046l1.611,4.446l-7.838-1.574l0.001,0
				l-22.284-4.477c-2.089-0.42-4.124,0.934-4.543,3.023c-0.42,2.089,0.933,4.123,3.023,4.544l22.284,4.477l-0.238,1.181
				l-24.092-4.839c-2.09-0.421-4.124,0.933-4.544,3.022c-0.419,2.088,0.933,4.123,3.022,4.542l24.094,4.842l-0.229,1.139
				l-20.964-4.213c-2.088-0.419-4.122,0.935-4.542,3.024c-0.42,2.09,0.933,4.123,3.021,4.542l20.964,4.212l-0.229,1.14
				l-17.507-3.517c-2.089-0.419-4.123,0.934-4.542,3.023c-0.419,2.088,0.934,4.125,3.022,4.543l17.507,3.517l0,0.002
				L498.155,376.501z"/>
		</g>
	</g>
	<polygon style="opacity:0.19;fill:#465B66;" points="446.931,397.387 445.561,426.365 441.501,425.811 	"/>
	
		<rect x="425.367" y="405.993" transform="matrix(0.1613 -0.9869 0.9869 0.1613 -36.6011 778.6372)" style="fill:#FFFFFF;" width="28.877" height="9.72"/>
	<polygon style="opacity:0.19;fill:#465B66;" points="515.379,346.878 505.91,374.321 510.339,375.428 	"/>
	<polygon style="fill:#FFFFFF;" points="509.69,375.19 515.379,346.878 524.907,348.792 519.943,377.446 	"/>
</g>
<g>
	<path style="fill:#301D1B;" d="M399.06,730.761v-4.86c0-3.596,1.4-6.971,3.942-9.503c2.546-2.546,5.925-3.947,9.518-3.947
		c7.417,0,13.45,6.034,13.45,13.45v4.86H399.06z"/>
	<path style="fill:#893C31;" d="M412.52,714.451c6.313,0,11.45,5.136,11.45,11.45v2.86h-22.91v-2.86c0-3.06,1.191-5.932,3.359-8.092
		C406.585,715.644,409.462,714.451,412.52,714.451L412.52,714.451z M412.52,710.451c-4.27,0-8.13,1.73-10.93,4.53
		c-2.8,2.79-4.53,6.65-4.53,10.92v6.86h30.91v-6.86C427.97,717.371,421.05,710.451,412.52,710.451L412.52,710.451z"/>
</g>
<polygon style="fill:#301D1B;" points="401.05,764.283 405.384,764.283 405.384,723.424 401.05,726.719 "/>
<rect x="385.55" y="757.112" style="fill:#301D1B;" width="19.833" height="7.167"/>
</svg>
